<svg xmlns="http://www.w3.org/2000/svg" width="400" height="400" viewBox="0 0 400 400"><g fill-rule="evenodd"><path fill="#151515" d="M102 146v100h216V46H102zm209.474-93.53.926.869v185.209l-.87.926-.869.926H109.452l-.926-.87-.926-.869V53.452l.87-.926.869-.926h201.209zM197.313 73.3c-.625.68-.743 1.12-.483 1.8l.344.9h25.652l.344-.9c.956-2.5-.019-2.7-13.17-2.7-11.788 0-11.866.005-12.687.9m-12.993 3.734c-2.53.778-2.632 1.144-.595 2.13 3.933 1.904 12.275.97 12.275-1.374 0-1.435-7.827-1.941-11.68-.756m40.58-.222c-1.113.448-1.151 1.337-.1 2.388 1.291 1.291 9.87 1.208 10.37-.1.874-2.285-6.301-3.883-10.27-2.288m12 4c-1.113.448-1.151 1.337-.1 2.388 1.243 1.243 5.884 1.171 6.37-.1.809-2.115-3.127-3.551-6.27-2.288m7.949 4.037c-.906.346-.938.482-.676 2.857.564 5.1 3.404 5.153 3.422.064.007-2.098-1.29-3.477-2.746-2.921m-67.631.529c-.633.763-.389 2.233.459 2.764.797.5 2.323-.633 2.323-1.724 0-1.46-1.857-2.154-2.782-1.04m-4.029 7.442c-.633 1.183-.332 2.946.531 3.11.993.188 2.68-.993 2.68-1.877 0-1.734-2.441-2.671-3.211-1.233m75.461.68c-.113.385-.326 1.6-.475 2.7-.155 1.146-.621 2.384-1.092 2.9l-.822.9h-30.254c-33.509 0-31.28-.193-32.16 2.786-.953 3.23-2.741 3.23-3.694 0-.662-2.242-1.416-2.786-3.856-2.786-2.37 0-3.298-.455-4.103-2.012-.916-1.772-2.179-1.577-3.973.612l-1.475 1.8h-10.311c-9.803 0-10.347.039-11.035.8-1.798 1.987-.249 2.4 8.992 2.4 8.126 0 8.284.016 9.138.926 1.35 1.436 1.242 1.603-5.13 7.874l-6 5.905v32.356l-.926.869c-.83.78-1.363.87-5.163.87h-4.237l-1.674 2c-1.633 1.951-1.728 2-3.857 2h-2.182l-4.981 4.98-4.98 4.981v11.304l2.968 2.967 2.967 2.968h2.195c2.145 0 2.234.046 3.87 2l1.674 2h6.294c8.128 0 8.032-.073 8.032 6.089v4.237l2 1.674c1.95 1.633 2 1.729 2 3.851v2.177l6.986 6.986 6.986 6.986h79.267l4.981-4.98 4.98-4.981v-2.193c0-2.113.065-2.246 1.8-3.667 2.807-2.301 2.299-3.779-1.298-3.779-3.028 0-4.102 1.103-4.102 4.212 0 1.941-.144 2.368-1.052 3.118-1.168.967-2.315 2.086-3.605 3.518a33 33 0 0 1-2 1.987 24 24 0 0 0-2.013 2.1c-2.391 2.929-7.33 1.074-7.33-2.753 0-1.822-.175-2.394-.982-3.2l-.982-.982h-20.072l-.982.982c-.807.806-.982 1.378-.982 3.2 0 3.069-.784 3.818-4 3.818s-4-.749-4-3.818c0-1.822-.175-2.394-.982-3.2l-.982-.982h-20.072l-.982.982c-.807.806-.982 1.378-.982 3.2 0 3.462-.562 3.818-6.03 3.818-4.297 0-4.457-.032-5.3-1.052-.967-1.168-2.086-2.315-3.518-3.605a33 33 0 0 1-1.987-2 31 31 0 0 0-2-2 31 31 0 0 1-2-2 24 24 0 0 0-2.1-2.013c-.924-.754-1.065-1.167-1.065-3.118 0-2.358-.103-2.528-2.948-4.882l-1.052-.869V172.03c0-21.897.019-22.449.8-23.23.792-.792 1.333-.8 53.2-.8s52.408.008 53.2.8c.758.758.8 1.333.8 10.911 0 10.772.188 11.889 2 11.889 1.648 0 2-1.387 2-7.889 0-7.428.148-7.711 4.018-7.711 2.069 0 2.568-.15 3.455-1.037l1.037-1.037-1.161-1.162c-1.055-1.055-1.29-1.125-2.553-.763-5.238 1.502-5.196 1.644-5.196-17.574v-16.122l-6-5.905c-6.334-6.234-6.539-6.554-5.074-7.93.888-.835 1.257-.87 9.138-.87 9.18 0 10.731-.416 8.936-2.4-.688-.76-1.232-.8-10.992-.8-12.091 0-12.008.028-12.008-4.064 0-2.868-2.297-5.076-2.95-2.836m-48.763 18.613c.587.588.737 1.559.847 5.517l.134 4.803 1.549.978c1.98 1.25 2.383 2.042 2.383 4.683 0 3.091.036 3.106 7.2 3.106s7.2-.015 7.2-3.106c0-2.641.403-3.433 2.383-4.683l1.549-.978.134-4.803c.181-6.5-.204-6.196 8.054-6.356 7.432-.144 8.399.079 9.254 2.126.411.983 1.037 1.613 2.008 2.018.965.403 1.597 1.035 2 2 .405.971 1.035 1.597 2.018 2.008 2.08.869 2.2 1.569 2.2 12.831v10.205l-1.169 1.169-1.169 1.169h-72.924l-1.169-1.169-1.169-1.169v-10.205c0-11.262.12-11.962 2.2-12.831.983-.411 1.613-1.037 2.018-2.008.403-.965 1.035-1.597 2-2 .972-.406 1.597-1.035 2.009-2.021.863-2.065 1.46-2.178 11.06-2.083 7.73.077 8.765.164 9.4.799m-14.607 9.167c-.623.623-.623 4.817 0 5.44.264.264 1.488.48 2.72.48s2.456-.216 2.72-.48.48-1.488.48-2.72-.216-2.456-.48-2.72c-.623-.623-4.817-.623-5.44 0m44 0c-.264.264-.48 1.488-.48 2.72 0 2.796.404 3.2 3.2 3.2s3.2-.404 3.2-3.2c0-1.232-.216-2.456-.48-2.72-.623-.623-4.817-.623-5.44 0M151.2 156.8c.766.766.8 1.333.8 13.2 0 15.154.497 14-6.03 14-4.297 0-4.457-.032-5.3-1.052-2.354-2.845-2.524-2.948-4.882-2.948-1.941 0-2.368-.144-3.118-1.052a27 27 0 0 0-3.618-3.618c-.928-.767-1.052-1.16-1.052-3.33s.124-2.563 1.052-3.33c1.168-.967 2.315-2.086 3.605-3.518a33 33 0 0 1 2-1.987 24 24 0 0 0 2.013-2.1c.754-.924 1.167-1.065 3.118-1.065 2.358 0 2.528-.103 4.882-2.948 1.156-1.398 5.227-1.555 6.53-.252m133.489 3.907c-1.268 1.323-.853 2.397 1.266 3.274.653.271 1.653 1.196 2.222 2.056.569.859 1.186 1.563 1.37 1.563 3.13 0 3.404 7.36.312 8.381-1.02.336-1.497.826-1.964 2.014-.976 2.485-3.895 2.819-3.895.446 0-2.108-1.328-2.913-2.816-1.708-1.246 1.009-.815 2.724.862 3.429.67.282 1.432.942 1.694 1.467 1.572 3.153 5.142 2.753 8.892-.997l2.968-2.967v-11.33l-2.905-2.905c-2.232-2.232-3.259-2.972-4.429-3.191-.838-.157-1.742-.37-2.01-.473s-.973.321-1.567.941m-5.144 7.26c-3.036.425-4.138 2.092-2.256 3.41 1.728 1.21 6.711.597 6.711-.825 0-.98-2.028-3.3-2.533-2.899-.037.03-.902.171-1.922.314m5.084 4.662c-1.214 1.213-.336 3.371 1.371 3.371 1.868 0 2.415-1.621 1.018-3.018-1.148-1.149-1.537-1.206-2.389-.353m-20.006 4.66c-.811 1.158-.941 20.633-.143 21.431 1.893 1.893 3.12-.144 3.12-5.182 0-5.692.245-5.938 5.9-5.938 4.309 0 5.963-.378 6.377-1.456.574-1.495-1.219-2.144-5.921-2.144-5.346 0-5.956-.38-5.956-3.711 0-2.335-.799-3.889-2-3.889-.415 0-1.035.4-1.377.889"/><path fill="#fcfcbc" d="M109.6 146v92.4h200.8V53.6H109.6zm113.769-75.039c.97.406 1.475.961 1.818 2l.475 1.439h4.182c5.171 0 6.671.523 7.343 2.561.468 1.418.507 1.439 2.657 1.439 3.096 0 4.759.791 5.336 2.538.36 1.091.791 1.522 1.882 1.882 1.747.577 2.538 2.24 2.538 5.336 0 2.15.021 2.189 1.439 2.657 1.777.586 2.561 2.232 2.561 5.374V98.4h10.14c11.416 0 12.439.173 13.308 2.254 1.669 3.993-.51 4.946-11.308 4.946-8.289 0-9.343.206-6.588 1.288 1.187.467 1.661.938 2.013 2.005.351 1.065.825 1.539 2 2 1.185.466 1.648.934 2.01 2.033.365 1.104.792 1.533 1.887 1.894 2.496.824 2.538 1.147 2.538 19.367 0 14.145.077 16.213.6 16.213.493 0 .6-.704.6-3.94 0-6.353.597-7.229 5.2-7.632l2.6-.228.21-2.6c.207-2.566.19-2.621-1.3-4.245l-1.51-1.644v-12.176l3-3 3-3 3 3 3 3v12.176l-1.5 1.644-1.5 1.645.2 6.6c.217 7.161.638 8.204 2.079 5.146 1.528-3.247 12.543-3.389 13.35-.172.44 1.754-.125 2.971-1.734 3.728-.928.437-1.731 1.214-2.131 2.061-.379.802-1.199 1.622-2 2.001s-1.622 1.199-2 2c-.37.783-1.206 1.629-1.974 1.997-1.877.901-1.866 1.43.043 2.001 1.368.41 1.76.766 2.266 2.054.468 1.19.94 1.667 1.995 2.015 2.133.704 2.506 2.069 2.506 9.169 0 7.129-.369 8.464-2.538 9.18-1.091.36-1.522.791-1.882 1.882-.589 1.782-2.247 2.538-5.567 2.538H285.2v2.013c0 4.988-4.153 7.39-5.832 3.373l-.579-1.386H269.6v4.213c0 5.185-.522 6.701-2.538 7.367-1.095.361-1.522.79-1.887 1.894-.363 1.102-.825 1.567-2.023 2.038-1.535.603-1.552.633-1.552 2.762 0 3.045-.798 4.731-2.506 5.295-1.051.347-1.528.826-1.987 1.996-.466 1.185-.934 1.648-2.033 2.01-1.104.365-1.533.792-1.894 1.887-.878 2.66 1.194 2.538-43.18 2.538s-42.302.122-43.18-2.538c-.361-1.095-.79-1.522-1.894-1.887-1.091-.36-1.568-.826-2.021-1.979-.445-1.133-.968-1.656-2.101-2.101-1.153-.453-1.619-.93-1.979-2.021-.365-1.104-.792-1.533-1.887-1.894-1.747-.577-2.538-2.24-2.538-5.336 0-2.15-.021-2.189-1.439-2.657-2.041-.674-2.561-2.17-2.561-7.374V189.6h-6.213c-7.351 0-8.646-.354-9.374-2.561-.468-1.418-.507-1.439-2.657-1.439-3.096 0-4.759-.791-5.336-2.538-.36-1.091-.791-1.522-1.882-1.882-2.169-.716-2.538-2.051-2.538-9.18 0-7.1.373-8.465 2.506-9.169 1.051-.347 1.528-.826 1.987-1.996.466-1.185.934-1.648 2.033-2.01 1.104-.365 1.533-.792 1.894-1.887.577-1.747 2.24-2.538 5.336-2.538 2.15 0 2.189-.021 2.657-1.439.674-2.041 2.17-2.561 7.374-2.561h4.213v-16.213c0-18.22.042-18.543 2.538-19.367 1.095-.361 1.522-.79 1.887-1.894.362-1.099.825-1.567 2.01-2.033 1.175-.461 1.649-.935 2-2 .352-1.067.826-1.538 2.013-2.005 2.758-1.083 1.699-1.288-6.661-1.288-10.687 0-12.7-.862-11.312-4.843.753-2.159 1.867-2.357 13.251-2.357h10.153l.609-1.552c.474-1.206.934-1.659 2.061-2.031 1.075-.355 1.508-.757 1.669-1.548.615-3.012 1.1-4.097 2.273-5.084.741-.623 1.536-1.854 1.893-2.93.563-1.695.784-1.911 2.57-2.503 1.568-.52 2.067-.915 2.522-1.997.312-.742.894-1.711 1.294-2.152.399-.442.977-1.343 1.283-2.003.767-1.654 2.502-2.15 7.616-2.177l4.269-.023.474-1.438c.801-2.425 1.416-2.529 15.101-2.546 9.519-.013 12.4.104 13.456.545M185.9 113.498c2.255.072 5.945.072 8.2 0 2.255-.071.41-.129-4.1-.129s-6.355.058-4.1.129m43-.001a86 86 0 0 0 6.2 0c1.705-.075.31-.136-3.1-.136s-4.805.061-3.1.136m-30.35 4.703c.001 2.42.066 3.358.146 2.085s.079-3.253-.002-4.4c-.08-1.147-.145-.105-.144 2.315m26.8 0c.001 2.42.066 3.358.146 2.085s.079-3.253-.002-4.4c-.08-1.147-.145-.105-.144 2.315m-38.65.489c.715.089 1.885.089 2.6 0 .715-.088.13-.161-1.3-.161s-2.015.073-1.3.161m44 0c.715.089 1.885.089 2.6 0 .715-.088.13-.161-1.3-.161s-2.015.073-1.3.161M182.528 124c0 1.43.073 2.015.161 1.3s.089-1.885 0-2.6c-.088-.715-.161-.13-.161 1.3m10.8 0c0 1.43.073 2.015.161 1.3s.089-1.885 0-2.6c-.088-.715-.161-.13-.161 1.3m33.2 0c0 1.43.073 2.015.161 1.3s.089-1.885 0-2.6c-.088-.715-.161-.13-.161 1.3m10.8 0c0 1.43.073 2.015.161 1.3s.089-1.885 0-2.6c-.088-.715-.161-.13-.161 1.3m-63.954 8c0 5.61.056 7.905.125 5.1a251 251 0 0 0 0-10.2c-.069-2.805-.125-.51-.125 5.1m73.2 0c0 5.61.056 7.905.125 5.1a251 251 0 0 0 0-10.2c-.069-2.805-.125-.51-.125 5.1m-44.05-3.8c.002 1.32.077 1.812.166 1.093s.087-1.799-.004-2.4-.164-.013-.162 1.307m18.8 0c.002 1.32.077 1.812.166 1.093s.087-1.799-.004-2.4-.164-.013-.162 1.307m-34.624 1.289c.715.089 1.885.089 2.6 0 .715-.088.13-.161-1.3-.161s-2.015.073-1.3.161m44 0c.715.089 1.885.089 2.6 0 .715-.088.13-.161-1.3-.161s-2.015.073-1.3.161m-53.646 2.94c-2.156 1.696-.469 3.971 2.946 3.971 2.11 0 4-1.134 4-2.4s-1.89-2.4-4-2.4c-1.309 0-2.217.256-2.946.829m60 0c-2.156 1.696-.469 3.971 2.946 3.971 2.11 0 4-1.134 4-2.4s-1.89-2.4-4-2.4c-1.309 0-2.217.256-2.946.829m-54.343.194c1.995 1.397.406 3.377-2.711 3.377-2.043 0-3.6-.865-3.6-2s1.557-2 3.6-2c1.002 0 2.222.28 2.711.623m60 0c1.995 1.397.406 3.377-2.711 3.377-2.043 0-3.6-.865-3.6-2s1.557-2 3.6-2c1.002 0 2.222.28 2.711.623m-34.011.875c1.815.074 4.785.074 6.6 0 1.815-.075.33-.135-3.3-.135s-5.115.06-3.3.135m-16.8 9.202c9.955.059 26.245.059 36.2 0 9.955-.06 1.81-.108-18.1-.108s-28.055.048-18.1.108"/><path fill="#24b44c" d="m108.47 52.526-.87.926v185.209l.926.869.926.87h201.209l.869-.926.87-.926V53.339l-.926-.869-.926-.87H109.339zm202.604.344.926.869v184.409l-.87.926-.869.926H109.852l-.926-.87-.926-.869V53.852l.87-.926.869-.926h200.409zM196.87 72.926c-.479.509-.87 1.126-.87 1.371 0 1.344-1.231 1.703-5.841 1.703-3.099 0-5.034.188-5.972.58-1.98.827-1.714 1.04.477.381 3.668-1.104 11.336-.595 11.336.753 0 1.689-.991 2.079-5.866 2.311l-4.734.225 4.411.075c4.985.085 5.946-.276 6.508-2.443l.332-1.282h26.698l.324 1.25c.541 2.086 1.181 2.331 6.662 2.55l5.017.2.322 1.25c.483 1.871 1.324 2.329 4.685 2.55l3.041.2.119 2.995c.121 3.032.978 4.805 2.322 4.805 1.139 0 1.759 1.256 1.759 3.567 0 3.965 2.894 3.633-31.708 3.633-16.635 0-30.328.135-30.43.3s13.513.253 30.256.195c34.987-.121 31.946.253 32.476-3.988.359-2.871.542-3.307 1.387-3.307 1.29 0 2.019 1.323 2.019 3.662 0 3.943-.016 3.938 12.064 3.938 9.704 0 10.248.04 10.936.8 1.798 1.987.249 2.4-8.992 2.4-8.126 0-8.284.016-9.138.926-1.35 1.436-1.242 1.603 5.13 7.874l6 5.905v32.356l.926.869c1.016.955 2.149 1.08 4.27.471 1.263-.362 1.498-.292 2.553.763l1.161 1.162-1.037 1.037c-.887.887-1.386 1.037-3.455 1.037-3.87 0-4.018.283-4.018 7.711 0 6.502-.352 7.889-2 7.889-1.812 0-2-1.117-2-11.889 0-9.578-.042-10.153-.8-10.911-.792-.792-1.333-.8-53.2-.8s-52.408.008-53.2.8c-.781.781-.8 1.333-.8 23.23v22.431l1.052.869c2.845 2.354 2.948 2.524 2.948 4.882 0 1.941.144 2.368 1.052 3.118 1.168.967 2.315 2.086 3.605 3.518a33 33 0 0 0 2 1.987 31 31 0 0 1 2 2 31 31 0 0 0 2 2 24 24 0 0 1 2.013 2.1c.847 1.037.986 1.065 5.3 1.065 5.468 0 6.03-.356 6.03-3.818 0-1.822.175-2.394.982-3.2l.982-.982h20.072l.982.982c.807.806.982 1.378.982 3.2 0 3.069.784 3.818 4 3.818s4-.749 4-3.818c0-1.822.175-2.394.982-3.2l.982-.982h20.072l.982.982c.807.806.982 1.378.982 3.2 0 3.827 4.939 5.682 7.33 2.753a24 24 0 0 1 2.013-2.1 33 33 0 0 0 2-1.987c1.29-1.432 2.437-2.551 3.605-3.518.908-.75 1.052-1.177 1.052-3.118 0-3.109 1.074-4.212 4.102-4.212 3.597 0 4.105 1.478 1.298 3.779-1.735 1.421-1.8 1.554-1.8 3.667v2.193l-4.98 4.981-4.981 4.98h-79.267l-6.986-6.986-6.986-6.986v-2.177c0-2.122-.05-2.218-2-3.851l-2-1.674v-4.294c0-6.1.091-6.032-8.089-6.032h-6.237l-1.674-2c-1.636-1.954-1.725-2-3.87-2h-2.195l-2.967-2.968-2.968-2.967v-11.304l4.98-4.981 4.981-4.98h2.182c2.129 0 2.224-.049 3.857-2l1.674-2h4.294c6.573 0 6.032 1.612 6.032-17.973v-16.122l6-5.905c6.334-6.234 6.539-6.554 5.074-7.93-.888-.835-1.257-.87-9.138-.87-9.18 0-10.731-.416-8.936-2.4.688-.761 1.232-.8 11.035-.8h10.311l1.475-1.8c1.56-1.903 3.173-2.404 3.659-1.136.218.569.301.54.575-.2a1.35 1.35 0 0 1 1.232-.889l.913-.026-.9-.361c-1.166-.469-1.222-2.466-.1-3.588.44-.44.633-.8.429-.8-.557 0-2.029 2.012-2.029 2.774 0 .86-.774 1.626-1.643 1.626-.375 0-1.436.9-2.357 2l-1.674 2h-20.587l-.939 1-.939 1 .939 1 .939 1h16.522l.929.989.929.989-6.06 5.964-6.059 5.963v32.356l-.926.869c-.83.78-1.363.87-5.163.87h-4.237L140 154c-1.633 1.951-1.728 2-3.857 2h-2.182l-4.981 4.98-4.98 4.981v12.104l2.968 2.967 2.967 2.968h2.195c2.145 0 2.234.046 3.87 2l1.674 2h6.294c8.128 0 8.032-.073 8.032 6.089v4.237l2 1.674c1.95 1.633 2 1.729 2 3.851v2.177l6.986 6.986 6.986 6.986h80.067l4.981-4.98 4.98-4.981v-2.182c0-2.123.054-2.227 1.957-3.821 1.076-.901 2.067-2.076 2.201-2.611.134-.534.648-1.094 1.143-1.244 2.313-.702 2.699-1.586 2.699-6.181 0-5.764.233-6 5.907-6 4.534 0 5.649.341 6.65 2.034 1.393 2.359 3.038 1.114 3.049-2.308.009-2.93.949-3.726 4.4-3.726 2.026 0 2.105-.046 5.026-2.968l2.968-2.967v-12.156l-3.182-3.054c-1.751-1.68-3.686-3.448-4.3-3.928-1.316-1.027-1.068-1.765 1.088-3.233.731-.498 1.658-1.445 2.058-2.104.401-.658 1.288-1.538 1.972-1.954s1.588-1.321 2.008-2.012c.42-.69 1.392-1.626 2.16-2.079 3.109-1.835 1.451-3.145-3.978-3.145-4.126 0-3.864-.116-6.076 2.7-2.736 3.484-4.064 1.224-4.223-7.187-.109-5.727-.228-6.787-.827-7.385-1.18-1.178-2.028.106-2.224 3.367-.22 3.665-.978 4.505-4.069 4.505-3.54 0-3.771.325-4.007 5.625-.193 4.327-.24 4.523-1.295 5.308l-1.095.816-1.005-.944-1.005-.944v-32.356l-6.059-5.963-6.06-5.964.929-.989.929-.989h16.522l.939-1 .939-1-.939-1-.939-1H264c-12.079 0-12 .027-12-4.056 0-2.198-1.017-3.944-2.297-3.944-1.117 0-1.703-1.293-1.703-3.759 0-2.669-.695-3.814-2.68-4.415-.483-.147-.999-.663-1.146-1.146-.601-1.985-1.746-2.68-4.415-2.68Q236 80 236 78.241c0-1.628-1.722-2.241-6.297-2.241-4.516 0-5.703-.366-5.703-1.759 0-2.075-1.04-2.241-14.056-2.241h-12.205zm25.817.374c.625.68.743 1.12.483 1.8l-.344.9h-25.652l-.344-.9c-.956-2.5.019-2.7 13.17-2.7 11.788 0 11.866.005 12.687.9m12 4c1.866 2.03.756 2.7-4.474 2.7-4.833 0-6.213-.492-6.213-2.213 0-1.646 9.236-2.067 10.687-.487m8 4c.625.68.743 1.12.483 1.8-.784 2.05-7.17.881-7.17-1.313 0-1.559 5.345-1.948 6.687-.487m-65.868 3.68c-.643.684-.826 1.197-.608 1.7.291.671.325.665.494-.08.438-1.936 2.025-2.406 3.072-.911.343.489.623.7.623.47 0-1.684-2.372-2.466-3.581-1.179m70.776 2.79c-.018 5.089-2.858 5.036-3.422-.064-.262-2.375-.23-2.511.676-2.857 1.456-.556 2.753.823 2.746 2.921M174.4 99.827c1.344.3 4.311.353 4.138.073-.102-.165-1.21-.279-2.462-.254s-2.006.107-1.676.181m5.77 3.019c.929 3.145 2.731 3.145 3.66 0 .571-1.934.408-1.927-.565.022-.366.733-.935 1.332-1.265 1.332s-.899-.599-1.265-1.332c-.973-1.949-1.136-1.956-.565-.022m.743 8.751c-.488.202-1.157 1.012-1.486 1.8-.412.986-1.037 1.615-2.009 2.021-.965.403-1.597 1.035-2 2-.405.971-1.035 1.597-2.018 2.008-2.08.869-2.2 1.569-2.2 12.831v10.205l1.169 1.169 1.169 1.169h72.924l1.169-1.169 1.169-1.169v-10.205c0-11.262-.12-11.962-2.2-12.831-.983-.411-1.613-1.037-2.018-2.008-.403-.965-1.035-1.597-2-2-.971-.405-1.597-1.035-2.008-2.018-.855-2.047-1.822-2.27-9.254-2.126-8.258.16-7.873-.144-8.054 6.356l-.134 4.803-1.549.978c-1.98 1.25-2.383 2.042-2.383 4.683 0 3.091-.036 3.106-7.2 3.106s-7.2-.015-7.2-3.106c0-2.641-.403-3.433-2.383-4.683l-1.549-.978-.134-4.803c-.186-6.653.534-6.209-10.247-6.316-4.778-.047-9.086.08-9.574.283m18.356 1.065c.623.564.731 1.306.731 5.018 0 4.739.047 4.849 2.951 6.839.935.641 1.049.978 1.049 3.118 0 4.054.566 4.363 8 4.363s8-.309 8-4.363c0-2.14.114-2.477 1.049-3.118 2.904-1.99 2.951-2.1 2.951-6.839 0-5.974-.359-5.73 8.224-5.59l6.738.11 1.057 1.556c.581.856 1.543 1.811 2.138 2.123.596.312 1.432 1.141 1.858 1.841.426.701 1.452 1.734 2.28 2.296l1.505 1.022.107 10.742c.095 9.572.033 10.823-.562 11.481-.983 1.086-73.416 1.161-74.614.077-.673-.61-.731-1.505-.731-11.381v-10.72l1.047-.718c.575-.396 1.384-1.079 1.796-1.519s1.337-1.386 2.054-2.103 1.663-1.641 2.103-2.054 1.123-1.221 1.519-1.796l.718-1.047h8.65c7.488 0 8.748.089 9.382.662m-14.287 8.32c-2.635 2.634-.749 7.018 3.018 7.018 2.841 0 4-1.159 4-4 0-1.629-.197-2.233-.982-3.018S189.629 120 188 120s-2.233.197-3.018.982m44 0c-.785.785-.982 1.389-.982 3.018s.197 2.233.982 3.018 1.389.982 3.018.982 2.233-.197 3.018-.982c2.635-2.634.749-7.018-3.018-7.018-1.629 0-2.233.197-3.018.982m-38.262.298c.264.264.48 1.488.48 2.72s-.216 2.456-.48 2.72-1.488.48-2.72.48-2.456-.216-2.72-.48c-.623-.623-.623-4.817 0-5.44s4.817-.623 5.44 0m44 0c.264.264.48 1.488.48 2.72 0 2.796-.404 3.2-3.2 3.2s-3.2-.404-3.2-3.2c0-1.232.216-2.456.48-2.72.623-.623 4.817-.623 5.44 0m27.954 27.99c.922.865.926.919.926 11.2 0 11.214.144 11.93 2.4 11.93 2.061 0 2.4-1.112 2.4-7.874 0-7.41.308-8.126 3.496-8.126 2.209 0 2.626.231 5.667 3.134l2.482 2.369-.122 2.135c-.112 1.948-.245 2.213-1.523 3.022-4.167 2.642-3.649 5.34 1.026 5.34 3.988 0 5.139 1.687 2.18 3.197-1.844.941-2.224 1.933-1.843 4.808.353 2.659-.624 3.195-5.817 3.195-4.78 0-5.546-.562-5.546-4.07 0-2.536-.851-3.93-2.4-3.93-2.258 0-2.4.708-2.4 12 0 12.282.094 12-4 12-3.259 0-4 .734-4 3.964 0 2.192-.095 2.44-1.3 3.386-.715.561-1.543 1.279-1.84 1.595-.697.742-3.173 3.218-3.915 3.915-.316.297-1.034 1.125-1.595 1.84-2.418 3.079-6.55 1.332-6.55-2.77 0-4.027.307-3.93-12.4-3.93-12.683 0-12.4-.088-12.4 3.874 0 3.016-.953 4.126-3.544 4.126-2.696 0-3.656-1.069-3.656-4.07 0-4.027.307-3.93-12.4-3.93-12.683 0-12.4-.088-12.4 3.874 0 3.589-.734 4.126-5.634 4.126h-3.895l-1.021-1.3c-.561-.715-1.279-1.543-1.595-1.84a128 128 0 0 1-1.975-1.94l-2-2-2-2a128 128 0 0 1-1.94-1.975c-.297-.316-1.125-1.034-1.84-1.595-1.205-.946-1.3-1.194-1.3-3.386 0-2.493-.001-2.494-2.7-4.614l-1.3-1.021v-43.677l.87-.926.869-.926h103.609zm-118.004 7.782c-2.354 2.845-2.524 2.948-4.882 2.948-1.951 0-2.364.141-3.118 1.065a24 24 0 0 1-2.013 2.1 33 33 0 0 0-2 1.987c-1.29 1.432-2.437 2.551-3.605 3.518-.928.767-1.052 1.16-1.052 3.33s.124 2.563 1.052 3.33a27 27 0 0 1 3.618 3.618c.75.908 1.177 1.052 3.118 1.052 2.358 0 2.528.103 4.882 2.948.843 1.02 1.003 1.052 5.3 1.052 6.527 0 6.03 1.154 6.03-14 0-14.57.164-14-4.03-14-2.137 0-2.536.127-3.3 1.052m6.004.218.926.869v11.805c0 14.5.348 13.656-5.634 13.656h-3.895l-1.021-1.3c-2.12-2.699-2.121-2.7-4.614-2.7-2.192 0-2.44-.095-3.386-1.3-1.275-1.624-1.726-2.075-3.35-3.35-1.146-.9-1.3-1.25-1.3-2.95s.154-2.05 1.3-2.95c.715-.561 1.543-1.279 1.84-1.595.697-.742 3.173-3.218 3.915-3.915.316-.297 1.034-1.125 1.595-1.84.946-1.205 1.194-1.3 3.386-1.3 2.493 0 2.494-.001 4.614-2.7 1.299-1.654 4.094-1.868 5.624-.43m137.592 2.969c1.17.219 2.197.959 4.429 3.191l2.905 2.905v11.33l-2.968 2.967c-3.75 3.75-7.32 4.15-8.892.997-.262-.525-1.024-1.185-1.694-1.467-1.677-.705-2.108-2.42-.862-3.429 1.488-1.205 2.816-.4 2.816 1.708 0 2.373 2.919 2.039 3.895-.446.467-1.188.944-1.678 1.964-2.014 3.092-1.021 2.818-8.381-.312-8.381-.184 0-.801-.704-1.37-1.563-.569-.86-1.569-1.785-2.222-2.056-2.119-.877-2.534-1.951-1.266-3.274.594-.62 1.3-1.044 1.567-.941.268.103 1.172.316 2.01.473m-1.185 5.599c.842 1.217 1.45 1.823 3.219 3.212 1.129.887 1.3 1.262 1.3 2.854 0 3.29-1.862 4.319-3.171 1.753-.48-.941-1.269-1.742-2.023-2.055-.68-.281-1.386-.802-1.568-1.157-1.791-3.49.194-7.567 2.243-4.607m-4.899 2.01c.549.211 1.818 2.098 1.818 2.704 0 1.422-4.983 2.035-6.711.825-1.882-1.318-.78-2.985 2.256-3.41 1.02-.143 1.885-.284 1.922-.314.037-.029.359.059.715.195m4.836 5.134c1.149 1.148 1.206 1.537.353 2.389-1.213 1.214-3.371.336-3.371-1.371 0-1.868 1.621-2.415 3.018-1.018m-19.641 4.307c.373.532.623 1.737.623 3 0 3.331.61 3.711 5.956 3.711 4.702 0 6.495.649 5.921 2.144-.414 1.078-2.068 1.456-6.377 1.456-5.655 0-5.9.246-5.9 5.938 0 4.396-.443 5.662-1.982 5.662-1.52 0-1.618-.666-1.618-10.991 0-10.686.19-11.809 2-11.809.415 0 1.035.4 1.377.889m19.68.116c.275.716-.518 1.795-1.319 1.795-.681 0-1.11-.974-.793-1.8.299-.78 1.812-.776 2.112.005"/><path fill="#b2b7b8" d="m108.87 52.926-.87.926v184.409l.926.869.926.87h200.409l.869-.926.87-.926V53.739l-.926-.869-.926-.87H109.739zM310.4 146v92.4H109.6V53.6h200.8zM196.827 70.957c-1.013.366-1.495.857-1.835 1.87l-.461 1.373-4.765.256c-5.753.31-6.381.49-7.159 2.05-.815 1.634-.793 1.656.625.606 1.101-.815 1.769-.926 6.3-1.045 5.093-.133 6.468-.528 6.468-1.859 0-2.039 1.079-2.208 14.056-2.208h12.205l.869.926c.479.509.87 1.111.87 1.338 0 1.302 1.466 1.736 5.862 1.736 4.469 0 6.138.616 6.138 2.264 0 1.056 1.515 1.736 3.87 1.736 2.523 0 3.276.437 4.302 2.495.244.489.844 1.089 1.333 1.333 2.08 1.037 2.495 1.77 2.495 4.405q-.001 3.769 1.759 3.767c1.238 0 2.241 1.816 2.241 4.056 0 3.95-.018 3.944 12.056 3.944h10.205l.939 1 .939 1-.939 1-.939 1h-16.522l-.929.989-.929.989 6.06 5.964 6.059 5.963v32.356l1.005.944 1.005.944 1.095-.816c1.055-.785 1.102-.981 1.295-5.308.236-5.3.467-5.625 4.007-5.625 3.09 0 3.85-.84 4.069-4.5.114-1.893.021-2.7-.308-2.7-.866 0-1.319 1.008-1.444 3.212l-.124 2.188-2.6.228c-4.603.403-5.2 1.279-5.2 7.632 0 3.236-.107 3.94-.6 3.94-.523 0-.604-2.069-.63-16.1-.034-17.699-.133-18.564-2.198-19.23-1.649-.531-2.083-.954-2.383-2.322-.178-.807-.609-1.318-1.326-1.572-1.807-.639-2.194-.984-2.663-2.376-.334-.992-.809-1.466-1.803-1.801-3.238-1.09-1.845-1.398 6.47-1.429 10.815-.041 12.459-.745 11.286-4.836-.59-2.058-1.807-2.269-13.253-2.304l-10.1-.03-.03-2.1c-.046-3.178-.76-4.758-2.397-5.307-1.332-.448-1.38-.538-1.619-3.027-.34-3.537-.85-4.636-2.302-4.955-1.404-.308-1.884-.804-2.271-2.342-.344-1.374-1.497-1.891-4.947-2.223-2.484-.238-2.58-.289-3.023-1.609-.61-1.816-1.542-2.138-6.977-2.409l-4.566-.228-.46-1.373c-.747-2.225-1.644-2.366-15.008-2.366-8.388 0-12.197.143-13.173.496m-20.55 12.123c-.652.169-1.477 1.591-1.477 2.546 0 .732 1.067.357 2.125-.748 1.642-1.714 1.419-2.334-.648-1.798m16.523 4.517c-.55.183-1.482.439-2.072.569-3.364.739-3.364 6.933 0 7.666a31 31 0 0 1 2.232.601c.655.207 12.789.367 27.9.367h26.74v-1.571c0-1.568-.784-2.829-1.759-2.829-1.084 0-2.241-1.82-2.241-3.526V87.2l-24.9.032c-13.695.017-25.35.181-25.9.365m-24.575 7.563c-.426.167-.982.919-1.235 1.672l-.46 1.368-10.565.204c-11.85.228-12.574.371-12.984 2.556-.755 4.026.582 4.569 11.352 4.61 8.315.031 9.708.339 6.47 1.429-.994.335-1.469.809-1.803 1.801-.469 1.392-.856 1.737-2.663 2.376-.717.254-1.148.765-1.326 1.572-.3 1.368-.734 1.791-2.383 2.322-2.065.666-2.164 1.531-2.198 19.23l-.03 16.1-4.1.03c-5.139.039-6.686.546-7.307 2.397-.448 1.332-.538 1.38-3.027 1.619-3.45.332-4.603.849-4.947 2.223-.387 1.538-.867 2.034-2.271 2.342-.807.178-1.318.609-1.572 1.326-.639 1.807-.984 2.194-2.376 2.663-1.964.661-2.339 2.104-2.339 9 0 6.722.397 8.359 2.167 8.93 1.649.531 2.083.954 2.383 2.322.319 1.452 1.418 1.962 4.955 2.302 2.489.239 2.579.287 3.027 1.619.671 2.001 2.068 2.36 9.307 2.397l6.1.03.03 4.1c.039 5.139.546 6.686 2.397 7.307 1.332.448 1.38.538 1.619 3.027.34 3.537.85 4.636 2.302 4.955 1.368.3 1.791.734 2.322 2.383.265.82.784 1.31 1.727 1.627 1.395.47 1.74.856 2.379 2.664.254.717.765 1.148 1.572 1.326 1.368.3 1.791.734 2.322 2.383.715 2.219-.305 2.167 42.93 2.167 43.674 0 42.185.081 43-2.339.468-1.39.857-1.738 2.649-2.371.665-.235 1.153-.784 1.332-1.498.387-1.538.867-2.034 2.271-2.342 1.452-.319 1.962-1.418 2.302-4.955.239-2.489.287-2.579 1.619-3.027 1.02-.342 1.49-.807 1.827-1.807.467-1.386.86-1.74 2.625-2.362 1.408-.496 1.975-2.618 1.975-7.384V189.6h9.189l.579 1.386c1.679 4.017 5.832 1.615 5.832-3.373V185.6h2.054c3.047 0 5.15-.744 5.584-1.975.622-1.765.976-2.158 2.362-2.625 1.964-.661 2.339-2.104 2.339-9s-.375-8.339-2.339-9c-1.386-.467-1.74-.86-2.362-2.625-.258-.731-.839-1.168-2.025-1.524-1.922-.576-1.929-1.176-.023-2.09.768-.368 1.604-1.214 1.974-1.997.378-.801 1.199-1.622 2-2 .801-.379 1.621-1.199 2-2.001.4-.847 1.203-1.624 2.131-2.061 1.609-.757 2.174-1.974 1.734-3.728-.807-3.217-11.822-3.075-13.35.172-1.43 3.037-1.869 1.996-1.99-4.718-.107-5.96-.359-7.227-1.438-7.229-.938-.001-.339 13.249.646 14.301 1.159 1.238 2.053 1.128 3.253-.4 2.212-2.816 1.95-2.7 6.076-2.7 5.429 0 7.087 1.31 3.978 3.145-.768.453-1.74 1.389-2.16 2.079s-1.324 1.596-2.008 2.012-1.571 1.296-1.972 1.954c-.4.659-1.327 1.606-2.058 2.104-2.156 1.468-2.404 2.206-1.088 3.233.614.48 2.549 2.248 4.3 3.928l3.182 3.054v12.156l-2.968 2.967c-2.921 2.922-3 2.968-5.026 2.968-3.451 0-4.391.796-4.4 3.726-.011 3.422-1.656 4.667-3.049 2.308-1.003-1.696-2.116-2.034-6.706-2.034-5.62 0-5.851.239-5.851 6.056 0 4.534-.393 5.425-2.699 6.125-.495.15-1.009.71-1.143 1.244-.134.535-1.125 1.71-2.201 2.611-1.903 1.594-1.957 1.698-1.957 3.821v2.182l-4.98 4.981-4.981 4.98h-80.067l-6.986-6.986-6.986-6.986v-2.177c0-2.122-.05-2.218-2-3.851l-2-1.674v-4.294c0-6.1.091-6.032-8.089-6.032h-6.237L136 186c-1.636-1.954-1.725-2-3.87-2h-2.195l-2.967-2.968-2.968-2.967v-12.104l4.98-4.981 4.981-4.98h2.182c2.129 0 2.224-.049 3.857-2l1.674-2h4.294c6.573 0 6.032 1.612 6.032-17.973v-16.122l6.059-5.963 6.06-5.964-.929-.989-.929-.989h-16.522l-.939-1-.939-1 .939-1 .939-1h20.447l2.107-2.282c2.629-2.848 2.609-3.606-.068-2.558m12.294 17.887c-.396.575-1.079 1.384-1.519 1.796s-1.386 1.337-2.103 2.054-1.641 1.663-2.054 2.103-1.221 1.123-1.796 1.519l-1.047.718v10.72c0 9.876.058 10.771.731 11.381 1.198 1.084 73.631 1.009 74.614-.077.595-.658.657-1.909.562-11.481l-.107-10.742-1.505-1.022c-.828-.562-1.854-1.595-2.28-2.296s-1.262-1.529-1.858-1.841c-.595-.312-1.557-1.267-2.138-2.123l-1.057-1.556-6.738-.11c-8.583-.14-8.224-.384-8.224 5.59 0 4.739-.047 4.849-2.951 6.839-.935.641-1.049.978-1.049 3.118 0 4.054-.566 4.363-8 4.363s-8-.309-8-4.363c0-2.14-.114-2.477-1.049-3.118-2.904-1.99-2.951-2.1-2.951-6.839 0-6.041.642-5.68-10.113-5.68h-8.65zm17.801.633c.319.319.48 2.062.48 5.2 0 5.023.476 6.32 2.32 6.32 1.283 0 1.68.869 1.68 3.68 0 4.328-.016 4.32 9.2 4.32s9.2.008 9.2-4.32c0-2.811.397-3.68 1.68-3.68 1.844 0 2.32-1.297 2.32-6.32 0-6.01-.398-5.68 6.856-5.68 6.306 0 6.199-.034 6.944 2.2.287.86.793 1.327 1.787 1.648 1.396.451 1.571.648 2.357 2.641.27.686.841 1.187 1.542 1.355.613.147 1.339.444 1.614.66.702.553.721 19.915.02 20.616-.696.696-71.944.696-72.64 0-.347-.347-.48-3.213-.48-10.376 0-10.63-.09-10.181 2.2-10.944.86-.287 1.327-.793 1.648-1.787.451-1.396.648-1.571 2.641-2.357a2.21 2.21 0 0 0 1.355-1.542c.147-.613.444-1.339.66-1.614.55-.698 15.92-.716 16.616-.02m-14.72 5.92c-.681.681-.8 1.333-.8 4.4s.119 3.719.8 4.4 1.333.8 4.4.8 3.719-.119 4.4-.8.8-1.333.8-4.4-.119-3.719-.8-4.4-1.333-.8-4.4-.8-3.719.119-4.4.8m44 0c-.681.681-.8 1.333-.8 4.4 0 4.894.306 5.2 5.2 5.2 3.067 0 3.719-.119 4.4-.8s.8-1.333.8-4.4c0-4.894-.306-5.2-5.2-5.2-3.067 0-3.719.119-4.4.8m-36.582 1.382c2.635 2.634.749 7.018-3.018 7.018-2.841 0-4-1.159-4-4 0-1.629.197-2.233.982-3.018S186.371 120 188 120s2.233.197 3.018.982m44 0c.785.785.982 1.389.982 3.018s-.197 2.233-.982 3.018-1.389.982-3.018.982-2.233-.197-3.018-.982c-2.635-2.634-.749-7.018 3.018-7.018 1.629 0 2.233.197 3.018.982m-77.748 28.344-.87.926v43.677l1.3 1.021c2.699 2.12 2.7 2.121 2.7 4.614 0 2.192.095 2.44 1.3 3.386.715.561 1.543 1.279 1.84 1.595s1.17 1.205 1.94 1.975l2 2 2 2c.77.77 1.659 1.643 1.975 1.94s1.034 1.125 1.595 1.84l1.021 1.3h3.895c4.9 0 5.634-.537 5.634-4.126 0-3.962-.283-3.874 12.4-3.874 12.707 0 12.4-.097 12.4 3.93 0 3.001.96 4.07 3.656 4.07 2.591 0 3.544-1.11 3.544-4.126 0-3.962-.283-3.874 12.4-3.874 12.707 0 12.4-.097 12.4 3.93 0 4.102 4.132 5.849 6.55 2.77.561-.715 1.279-1.543 1.595-1.84.742-.697 3.218-3.173 3.915-3.915.297-.316 1.125-1.034 1.84-1.595 1.205-.946 1.3-1.194 1.3-3.386 0-3.23.741-3.964 4-3.964 4.094 0 4 .282 4-12 0-9.867.041-10.441.8-11.2 1.957-1.957 4-.359 4 3.13 0 3.508.766 4.07 5.546 4.07 5.193 0 6.17-.536 5.817-3.195-.381-2.875-.001-3.867 1.843-4.808 2.959-1.51 1.808-3.197-2.18-3.197-4.675 0-5.193-2.698-1.026-5.34 1.278-.809 1.411-1.074 1.523-3.022l.122-2.135-2.482-2.369c-3.041-2.903-3.458-3.134-5.667-3.134-3.188 0-3.496.716-3.496 8.126 0 6.762-.339 7.874-2.4 7.874-2.256 0-2.4-.716-2.4-11.93 0-10.281-.004-10.335-.926-11.2l-.926-.87H158.139zm-12.22 8.374c-2.12 2.699-2.121 2.7-4.614 2.7-2.192 0-2.44.095-3.386 1.3-.561.715-1.279 1.543-1.595 1.84-.742.697-3.218 3.173-3.915 3.915-.297.316-1.125 1.034-1.84 1.595-1.146.9-1.3 1.25-1.3 2.95s.154 2.05 1.3 2.95c1.624 1.275 2.075 1.726 3.35 3.35.946 1.205 1.194 1.3 3.386 1.3 2.493 0 2.494.001 4.614 2.7l1.021 1.3h3.895c5.982 0 5.634.844 5.634-13.656v-11.805l-.926-.869c-1.53-1.438-4.325-1.224-5.624.43m139.64 7.538c-1.529.89-.275 5.54 1.716 6.364.754.313 1.543 1.114 2.023 2.055 1.309 2.566 3.171 1.537 3.171-1.753 0-1.592-.171-1.967-1.3-2.854-1.769-1.389-2.377-1.995-3.219-3.212-.775-1.119-1.281-1.246-2.391-.6m.255 12.162c-.317.826.112 1.8.793 1.8.801 0 1.594-1.079 1.319-1.795-.3-.781-1.813-.785-2.112-.005"/><path fill="#fca4b4" d="M177.289 132.623C175.294 134.02 176.883 136 180 136c2.043 0 3.6-.865 3.6-2s-1.557-2-3.6-2c-1.002 0-2.222.28-2.711.623m60 0C235.294 134.02 236.883 136 240 136c2.043 0 3.6-.865 3.6-2s-1.557-2-3.6-2c-1.002 0-2.222.28-2.711.623"/><path fill="#fcf404" d="M181.21 80.164c-.319 1.139-.412 2.738-.251 4.322.493 4.86-.578 5.906-4.917 4.806-1.918-.486-2.229-.476-2.8.095-.821.821-.245 1.232 2.247 1.606.967.144 1.822.475 1.901.735s.252.967.384 1.572c.158.719.499 1.1.985 1.1 1.215 0 1.645.931 2.044 4.427.566 4.961 1.835 5.482 2.267.93.255-2.685.906-3.971 2.219-4.381 1.898-.592 2.307-6.576.45-6.576-1.489 0-2.539-1.871-2.539-4.522 0-2.384-.527-4.85-1.196-5.6-.158-.177-.516.492-.794 1.486m8.07 5.116c-.649.649-.604.987.171 1.284.948.364 1.889-.514 1.305-1.217-.558-.672-.857-.686-1.476-.067m-15.888 12.333a.71.71 0 0 0 .096.835c.486.486 1.793-.004 1.596-.597-.21-.629-1.351-.79-1.692-.238m15.908-.148c-.679.274-.63.8.1 1.08 1.001.384 1.902-.14 1.361-.792-.483-.582-.651-.615-1.461-.288m89.6 17.526-2.9 2.949v6.16c0 7.97-.053 7.9 6.056 7.9 5.984 0 5.944.054 5.944-7.958v-6.107l-2.968-2.967c-1.632-1.633-3.027-2.959-3.1-2.947s-1.437 1.348-3.032 2.97"/><path fill="#e4ac7c" d="M196.672 76.661c-.15.15-.272.611-.272 1.024 0 3.302-10.613 3.98-14.02.897-.799-.723-1.595 0-2.57 2.333-.416.995-.879 1.485-1.403 1.485-1.04 0-.655.99.941 2.416 1.197 1.069 1.203 1.094.508 2.154-1.073 1.638-1.833 1.729-3.052.365-1.373-1.537-2.404-1.965-2.404-.998 0 .392-.557 1.124-1.237 1.627-1.326.98-2.363 2.997-2.363 4.595 0 .541-.283 1.267-.629 1.612-.345.346-.435.629-.2.629.236 0 .429.27.429.6 0 .723.467.773 1.12.12.666-.666.6-1.033-.22-1.229-.634-.151-.626-.199.084-.504.431-.185 1.181-.798 1.667-1.362l.884-1.025 1.132.84c2.013 1.493 1.15 3.683-1.662 4.218-2.643.503-.507 3.137 2.557 3.155 2.617.015 3.268.42 4.522 2.815 1.17 2.234 1.862 2.234 3.032 0 1.581-3.019-.932-2.801 32.522-2.815 28.777-.012 30.27-.048 30.9-.744 1.946-2.151 2.977-2.069-26.078-2.069-15.111 0-27.245-.16-27.9-.367a31 31 0 0 0-2.232-.601c-3.363-.733-3.363-6.931 0-7.664a31 31 0 0 0 2.232-.601c.651-.206 12.012-.367 25.925-.367h24.766l-.126-1.3-.125-1.3-3.041-.2c-3.361-.221-4.202-.679-4.685-2.55l-.322-1.25-5.017-.2c-5.481-.219-6.121-.464-6.662-2.55l-.324-1.25-13.202-.105c-7.262-.058-13.325.017-13.475.166m-13.927 3.699c.25.748.455 2.511.455 3.918 0 2.651 1.05 4.522 2.539 4.522 1.857 0 1.448 5.984-.45 6.576-1.313.41-1.964 1.696-2.219 4.381-.432 4.552-1.701 4.031-2.267-.93-.399-3.496-.829-4.427-2.044-4.427-.486 0-.827-.381-.985-1.1a28 28 0 0 0-.384-1.572c-.079-.26-.934-.591-1.901-.735-2.492-.374-3.068-.785-2.247-1.606.571-.571.882-.581 2.8-.095 4.339 1.1 5.41.054 4.917-4.806-.161-1.584-.068-3.183.251-4.322.546-1.951.83-1.915 1.535.196m8.011 4.987c.584.703-.357 1.581-1.305 1.217-.775-.297-.82-.635-.171-1.284.619-.619.918-.605 1.476.067m-15.672 12.504c.197.593-1.11 1.083-1.596.597a.71.71 0 0 1-.096-.835c.341-.552 1.482-.391 1.692.238m15.677-.098c.541.652-.36 1.176-1.361.792-.73-.28-.779-.806-.1-1.08.81-.327.978-.294 1.461.288m87.73 35.044c.538.862 1.64.763 2.695-.24.505-.48.325-.557-1.304-.557-1.786 0-1.862.043-1.391.797m4.323-.24c1.055 1.003 2.157 1.102 2.695.24.471-.754.395-.797-1.391-.797-1.629 0-1.809.077-1.304.557"/><path fill="#fcfcfc" d="M181.344 114.78c-.278 1.388-1.124 2.213-2.638 2.572-.759.181-1.173.595-1.354 1.354-.359 1.514-1.184 2.36-2.572 2.638l-1.18.236v20.82h72.8v-20.82l-1.18-.236c-1.388-.278-2.213-1.124-2.572-2.638-.181-.759-.595-1.173-1.354-1.354-1.514-.359-2.36-1.184-2.638-2.572l-.236-1.18h-12.738l-.141 4.958c-.155 5.452-.508 6.335-2.708 6.775-1.093.219-1.131.312-1.321 3.277-.309 4.82-.25 4.79-9.512 4.79s-9.203.03-9.512-4.79c-.19-2.965-.228-3.058-1.321-3.277-2.2-.44-2.553-1.323-2.708-6.775l-.141-4.958H181.58zm11.187 4.773c1.326 1.326 1.296 7.597-.042 8.936-.812.812-1.299.911-4.489.911-4.948 0-5.4-.45-5.4-5.369 0-5.113.62-5.666 6.131-5.458 2.384.09 3.093.273 3.8.98m44 0c.762.763.869 1.308.869 4.447 0 4.954-.446 5.4-5.4 5.4-4.948 0-5.4-.45-5.4-5.369 0-5.113.62-5.666 6.131-5.458 2.384.09 3.093.273 3.8.98m-53.585 12.876c2.156 1.696.469 3.971-2.946 3.971-2.11 0-4-1.134-4-2.4s1.89-2.4 4-2.4c1.309 0 2.217.256 2.946.829m60 0c2.156 1.696.469 3.971-2.946 3.971-2.11 0-4-1.134-4-2.4s1.89-2.4 4-2.4c1.309 0 2.217.256 2.946.829"/></g></svg>